<svg height="512pt" viewBox="0 -104 512.00085 512" width="512pt" xmlns="http://www.w3.org/2000/svg"><path d="M510.297 225.53l-34.32-145.843C466.734 40.398 430.52 0 375.37 0H136.634C96.27 0 48.653 26.004 36.023 79.688L1.703 225.53c-9.316 39.59 20.734 77.572 61.457 77.572 17.305 0 33.582-9.22 42.477-24.05l26.437-44.056c4.52-7.54 12.785-12.22 21.574-12.22h204.7c8.79 0 17.058 4.685 21.578 12.224l26.433 44.047c8.898 14.836 25.175 24.055 42.5 24.055 40.66 0 70.76-37.942 61.437-77.57zm-318.555-99.143H174.61v17.133c0 8.28-6.715 14.996-15 14.996-8.282 0-14.997-6.715-14.997-14.996v-17.133H127.48c-8.28 0-14.996-6.715-14.996-14.996 0-8.285 6.715-15 14.996-15h17.133V79.26c0-8.28 6.715-14.996 14.996-14.996 8.285 0 15 6.715 15 14.996V96.39h17.132c8.28 0 14.996 6.715 14.996 15 0 8.282-6.715 14.997-14.996 14.997zm128.516 0c-8.278 0-14.996-6.72-14.996-14.996 0-8.28 6.722-15 14.996-15 8.28 0 15 6.72 15 15 0 8.278-6.72 14.997-15 14.997zm32.133 32.13c-8.277 0-15-6.72-15-14.997 0-8.278 6.723-15 15-15s14.997 6.722 14.997 15c0 8.277-6.72 14.996-14.996 14.996zm0-64.26c-8.277 0-15-6.718-15-15 0-8.277 6.723-14.995 15-14.995s14.997 6.718 14.997 14.996c0 8.28-6.72 15-14.996 15zm32.13 32.13c-8.278 0-15-6.72-15-14.996 0-8.28 6.722-15 15-15 8.277 0 14.996 6.72 14.996 15 0 8.278-6.72 14.997-14.996 14.997zm0 0" fill-rule="evenodd"/></svg>